<!-- icon666.com - MILLIONS OF FREE VECTOR ICONS --><svg viewBox="0 0 60 52" xmlns="http://www.w3.org/2000/svg"><g id="Page-1" fill="none" fill-rule="evenodd"><g id="005---Heart-Murmur" fill-rule="nonzero" transform="translate(0 -1)"><g fill="#f29c1f"><path id="Shape" d="m41 49.206c-.4382748.0006187-.8258807-.2842225-.9561892-.7026779s.02705-.8730004.3881892-1.1213221c2.7419054-1.8634521 5.3438463-3.9249513 7.785-6.168.2611611-.2438338.6325678-.3298177.9743146-.2255624s.6019143.382911.6825.731c.0805857.3480891-.0306534.7127286-.2918146.9565624-2.5135895 2.3102072-5.192732 4.4335346-8.016 6.353-.1664299.1148722-.3637764.1765866-.566.177z"></path><path id="Shape" d="m43.27 52.5c-.4382748.0006187-.8258807-.2842225-.9561892-.7026779s.02705-.8730004.3881892-1.1213221c2.9037926-1.9753956 5.6594541-4.1602057 8.245-6.537.2592359-.2539922.6357357-.3475934.9837304-.2445643.3479947.1030292.6128523.3865142.6920282.7406984.079176.3541842-.0397596.7234641-.3107586.9648659-2.6577483 2.4445306-5.4906298 4.6915177-8.476 6.723-.1664299.1148722-.3637764.1765866-.566.177z"></path><path id="Shape" d="m19 49.206c-.2022236-.0004134-.3995701-.0621278-.566-.177-2.8233265-1.918957-5.5021727-4.0423145-8.015-6.353-.3888433-.3796451-.4033181-1.000336-.032595-1.3976947.3707231-.3973586.9909257-.4259154 1.396595-.0643053 2.4410004 2.2432282 5.0429549 4.3047382 7.785 6.168.3611392.2483217.5184977.7028667.3881892 1.1213221s-.5179144.7032966-.9561892.7026779z"></path><path id="Shape" d="m16.73 52.5c-.2021177-.0001193-.3994551-.0614821-.566-.176-2.9858128-2.0312465-5.8187348-4.2785999-8.476-6.724-.40372014-.3769343-.42543432-1.0097798-.04849998-1.4135.37693433-.4037201 1.00977983-.4254343 1.41349998-.0485 2.5856978 2.3777492 5.3420708 4.5629277 8.247 6.538.3614481.2485295.5187363.7036006.3878987 1.1222808-.1308376.4186803-.5192537.7032188-.9578987.7017192z"></path><path id="Shape" d="m4.217 12.715c-.37662143-.0016789-.72035712-.2148213-.88929564-.5514313s-.13442345-.7395897.08929564-1.0425687c2.17521381-2.97827965 5.25669737-5.17177107 8.783-6.252.5282604-.16126714 1.0872328.13623965 1.2485.6645.1612671.52826036-.1362396 1.08723285-.6645 1.2485-3.11715314.95459671-5.84070175 2.8942742-7.762 5.528-.18885356.2551038-.48759888.4054043-.805.405z"></path><path id="Shape" d="m1 10.339c-.37662143-.0016789-.72035712-.2148213-.88929564-.5514313s-.13442345-.73958968.08929564-1.0425687c2.68413484-3.66933894 6.48438258-6.37077058 10.832-7.7.3419032-.10432155.7134896-.01831547.9747863.22562058.2612967.24393606.3726065.6087424.292.957-.0806065.34825761-.3408831.62705787-.6827863.73137942-3.93725735 1.20384285-7.37799591 3.65193922-9.806 6.977-.19032217.2557725-.49119596.4054665-.81.403z"></path><path id="Shape" d="m55.783 12.715c-.3147573 0-.6111456-.1481942-.8-.4-1.9209856-2.63555418-4.6449208-4.57701156-7.763-5.533-.3523286-.09471959-.6251112-.37380111-.7117644-.72819983-.0866531-.35439872.0265771-.72786328.2954486-.97447095.2688715-.24660766.6507081-.32721603.9963158-.21032922 3.526045 1.08075162 6.6073767 3.27413493 8.783 6.252.2237191.302979.2582342.7059587.0892956 1.0425687-.1689385.33661-.5126742.5497524-.8892956.5514313z"></path><path id="Shape" d="m59 10.339c-.317931.0004877-.6171492-.1502351-.806-.406-2.4287255-3.32455201-5.8697077-5.77222123-9.807-6.976-.5285365-.16126716-.8262671-.7204635-.665-1.24899999.1612672-.5285365.7204635-.82626714 1.249-.66500001 4.3477906 1.32942907 8.1482998 4.03079718 10.833 7.7.2237191.30297902.2582342.7059587.0892956 1.0425687-.1689385.33661-.5126742.5497524-.8892956.5514313z"></path></g><path id="Shape" d="m30 15.15c2.9846748-3.8809697 7.6040633-6.15370885 12.5-6.15 7.4 0 12.5 6.2 12.5 13.46 0 8.7-7.51 17.851-24.5 27.411-.3113164.1713357-.6886836.1713357-1 0-16.99-9.56-24.5-18.706-24.5-27.411 0-7.26 5.1-13.46 12.5-13.46 4.8959367-.00370885 9.5153252 2.2690303 12.5 6.15z" fill="#ff5364"></path><path id="Shape" d="m9 23.459c-.55228475 0-1-.4477153-1-1 0-5.07 3.33-10.459 9.5-10.459.5522847 0 1 .4477153 1 1s-.4477153 1-1 1c-4.872 0-7.5 4.358-7.5 8.459 0 .5522847-.44771525 1-1 1z" fill="#fff"></path></g></g></svg>